<?xml version="1.0" encoding="UTF-8"?>
<svg width="1440px" height="1024px" viewBox="0 0 1440 1024" version="1.1" xmlns="http://www.w3.org/2000/svg" xmlns:xlink="http://www.w3.org/1999/xlink">
    <title>Earth</title>
    <defs>
        <circle id="path-1" cx="720" cy="512" r="314"></circle>
        <filter x="-2.2%" y="-2.2%" width="104.5%" height="104.5%" filterUnits="objectBoundingBox" id="filter-2">
            <feGaussianBlur stdDeviation="6.5" in="SourceAlpha" result="shadowBlurInner1"></feGaussianBlur>
            <feOffset dx="15" dy="5" in="shadowBlurInner1" result="shadowOffsetInner1"></feOffset>
            <feComposite in="shadowOffsetInner1" in2="SourceAlpha" operator="arithmetic" k2="-1" k3="1" result="shadowInnerInner1"></feComposite>
            <feColorMatrix values="0 0 0 0 0   0 0 0 0 0   0 0 0 0 0  0 0 0 0.5 0" type="matrix" in="shadowInnerInner1" result="shadowMatrixInner1"></feColorMatrix>
            <feGaussianBlur stdDeviation="6.5" in="SourceAlpha" result="shadowBlurInner2"></feGaussianBlur>
            <feOffset dx="-10" dy="-15" in="shadowBlurInner2" result="shadowOffsetInner2"></feOffset>
            <feComposite in="shadowOffsetInner2" in2="SourceAlpha" operator="arithmetic" k2="-1" k3="1" result="shadowInnerInner2"></feComposite>
            <feColorMatrix values="0 0 0 0 0   0 0 0 0 0   0 0 0 0 0  0 0 0 0.5 0" type="matrix" in="shadowInnerInner2" result="shadowMatrixInner2"></feColorMatrix>
            <feMerge>
                <feMergeNode in="shadowMatrixInner1"></feMergeNode>
                <feMergeNode in="shadowMatrixInner2"></feMergeNode>
            </feMerge>
        </filter>
        <path d="M762.499271,806.953868 C767.985949,806.953868 786.434119,789.313411 792.402608,799.834851 C797.130599,808.169502 787.907433,819.985075 792.402608,818.38331 C794.146056,817.762068 818.11987,811.474494 840.596116,802.575094 C857.293927,795.963648 872.95718,786.817345 879.16614,783.269648 C886.543592,779.054295 896.563311,774.773558 899.96524,768.083946 C910.084189,748.185865 906.790695,743.091105 892.990088,713.482508 C891.639228,710.584297 878.966472,687.574836 853.409866,671.883797 C844.978803,666.707361 823.781429,669.299957 813.697501,663.469572 C810.955533,661.884205 807.469592,650.253148 807.533016,638.461453 C807.622674,621.792241 811.646869,603.454519 807.533016,601.048381 C801.910499,597.759846 790.549857,592.873958 786.267855,578.402323 C782.719496,566.410136 786.340434,544.428429 781.302571,542.036487 C776.313749,539.66783 776.025984,528.615037 770.906197,526.645096 C766.945087,525.12098 774.938957,502.07553 770.906197,500.807777 C763.597219,498.510101 748.476751,439.934324 754.708732,435.268004 C769.128409,424.470982 836.217215,452.829475 846.716808,444.954108 C848.475845,443.634717 873.811978,447.727087 903.528516,444.954108 C909.139362,444.430535 925.655964,443.642046 954.539134,463.810957 C957.860683,466.13037 956.553603,485.784466 962.236481,491.372746 C966.508053,495.573212 976.352729,498.718223 991.770509,500.807777 C1000.52312,498.335705 1004.92019,495.190694 1004.96171,491.372746 C1005.08721,479.833435 992.065908,455.378955 991.770509,444.954108 C991.588442,438.528859 1018.83875,423.977856 1018.68541,418.161144 C1018.30057,403.610883 1007.33143,382.612603 996.784726,364.647321 C993.223861,358.581734 987.378847,345.448193 973.571686,326.755998 C963.723485,313.423461 946.031397,294.054213 939.481668,287 C926.278815,272.780214 907.617182,258.473472 883.496771,244.079774 C832.854268,213.248539 800.444629,203.041571 786.267855,213.458867 C749.771949,240.276583 748.643636,244.334575 748.071834,244.079774 C742.280858,241.49925 715.504176,224.17304 708.105093,226.101678 C696.112129,229.227751 686.444995,230.625928 676.503023,249.226755 C673.746837,254.383412 665.09007,272.204819 662.360386,277.5781 C657.717991,286.716485 654.109346,296.974076 651.161242,305.460337 C643.950048,326.218109 652.996155,340.084237 637.401821,343.035284 C631.238528,344.201615 618.839325,312.518186 602.235185,298.965493 C582.663726,282.990804 562.279997,268.008117 541.083997,254.017432 C534.02622,259.023496 527.87775,263.586199 522.638586,267.705541 C517.399423,271.824883 509.891372,278.622783 500.114435,288.099241 C518.141432,316.658435 526.043737,334.970449 523.821351,343.035284 C521.78823,350.413287 517.563764,364.647321 513.279619,364.647321 C503.249273,364.647321 486.994545,375.055808 464.515437,395.872783 C467.519899,408.026263 469.578481,416.780243 470.691183,422.134724 C474.266962,439.341881 449.57003,453.233959 449.57003,463.810957 C449.57003,468.67998 451.999596,519.461504 460.141494,532.162079 C467.269915,543.281727 477.128293,556.206783 488.9566,570.273005 C492.653052,574.668825 490.866885,596.449937 494.924914,601.048381 C501.867528,608.915555 524.622672,630.084814 543.751864,638.461453 C553.54522,642.749946 563.360515,634.306477 567.600426,638.461453 C569.962513,640.776222 568.97114,653.928794 574.713039,671.883797 C580.237387,689.158515 592.500095,711.258623 594.765785,713.482508 C602.599556,721.171736 624.599632,739.335768 625.576178,753.013279 C626.114967,760.559548 606.924707,758.564538 606.924707,779.931378 C606.924707,794.175938 613.141864,804.623703 625.576178,811.274673 C640.020057,816.119738 651.182144,819.270957 659.062438,820.72833 C681.004385,824.78625 703.781819,825.705287 708.105093,826 C726.657829,827.264719 729.564733,811.274395 737.543165,806.953868 C753.238889,798.454227 757.856414,806.953868 762.499271,806.953868 Z" id="path-3"></path>
        <filter x="-2.0%" y="-1.7%" width="104.0%" height="104.4%" filterUnits="objectBoundingBox" id="filter-4">
            <feOffset dx="0" dy="5" in="SourceAlpha" result="shadowOffsetOuter1"></feOffset>
            <feGaussianBlur stdDeviation="3" in="shadowOffsetOuter1" result="shadowBlurOuter1"></feGaussianBlur>
            <feColorMatrix values="0 0 0 0 0   0 0 0 0 0   0 0 0 0 0  0 0 0 0.5 0" type="matrix" in="shadowBlurOuter1" result="shadowMatrixOuter1"></feColorMatrix>
            <feOffset dx="0" dy="-1" in="SourceAlpha" result="shadowOffsetOuter2"></feOffset>
            <feGaussianBlur stdDeviation="2" in="shadowOffsetOuter2" result="shadowBlurOuter2"></feGaussianBlur>
            <feColorMatrix values="0 0 0 0 0   0 0 0 0 0   0 0 0 0 0  0 0 0 0.5 0" type="matrix" in="shadowBlurOuter2" result="shadowMatrixOuter2"></feColorMatrix>
            <feMerge>
                <feMergeNode in="shadowMatrixOuter1"></feMergeNode>
                <feMergeNode in="shadowMatrixOuter2"></feMergeNode>
            </feMerge>
        </filter>
    </defs>
    <g id="Earth" stroke="none" stroke-width="1" fill="none" fill-rule="evenodd">
        <g id="Oval-Copy">
            <use fill="#0D1A55" fill-rule="evenodd" xlink:href="#path-1"></use>
            <use fill="black" fill-opacity="1" filter="url(#filter-2)" xlink:href="#path-1"></use>
        </g>
        <g id="Oval">
            <use fill="black" fill-opacity="1" filter="url(#filter-4)" xlink:href="#path-3"></use>
            <use fill="#36552C" fill-rule="evenodd" xlink:href="#path-3"></use>
        </g>
        <text id="PANGEA" font-family="LucaPacioliRough" font-size="24" font-weight="normal" fill="#2B4423">
            <tspan x="569" y="527">PANGEA</tspan>
        </text>
        <path d="M613.544423,315.909637 C655.794206,315.909637 699,318.821837 699,307.5 C699,298.555358 677.751683,306.555941 647.941119,303.755998 C640.018439,303.011864 631.370998,287 622.5,287 C612.232753,287 602.727342,288.038653 594.219831,289.773629 C567.71888,295.17809 550.900808,307.339154 550.900808,315.909637 C550.900808,324.829635 566.96725,318.489938 593,315.909637 C600.009697,315.214854 604.581462,315.909637 613.544423,315.909637 Z" id="Oval" fill-opacity="0.78" fill="#D8D8D8"></path>
        <path d="M882.404153,737.119111 C924.653936,737.119111 967.85973,740.031311 967.85973,728.709473 C967.85973,719.764831 946.611413,727.765414 916.800849,724.965472 C908.878169,724.221338 900.230728,708.209473 891.35973,708.209473 C881.092483,708.209473 871.587073,709.248126 863.079561,710.983102 C836.57861,716.387563 819.760538,728.548627 819.760538,737.119111 C819.760538,746.039109 835.82698,739.699411 861.85973,737.119111 C868.869427,736.424327 873.441192,737.119111 882.404153,737.119111 Z" id="Oval-Copy-2" fill-opacity="0.78" fill="#D8D8D8" transform="translate(893.810134, 724.965472) rotate(-180.000000) translate(-893.810134, -724.965472) "></path>
        <path d="M790.544423,338.909637 C832.794206,338.909637 952.652977,338.077836 952.652977,326.755998 C952.652977,317.811356 936.040233,329.555941 906.229669,326.755998 C898.306989,326.011864 808.370998,310 799.5,310 C789.232753,310 779.727342,311.038653 771.219831,312.773629 C744.71888,318.17809 727.900808,330.339154 727.900808,338.909637 C727.900808,347.829635 743.96725,341.489938 770,338.909637 C777.009697,338.214854 781.581462,338.909637 790.544423,338.909637 Z" id="Oval-Copy-3" fill-opacity="0.78" fill="#D8D8D8"></path>
        <path d="M628.751176,714.119111 C671.000959,714.119111 790.85973,713.287309 790.85973,701.965472 C790.85973,693.02083 774.246986,704.765414 744.436422,701.965472 C736.513742,701.221338 646.577751,685.209473 637.706753,685.209473 C627.439507,685.209473 617.934096,686.248126 609.426584,687.983102 C582.925633,693.387563 566.107561,705.548627 566.107561,714.119111 C566.107561,723.039109 582.174003,716.699411 608.206753,714.119111 C615.21645,713.424327 619.788215,714.119111 628.751176,714.119111 Z" id="Oval-Copy-5" fill-opacity="0.78" fill="#D8D8D8" transform="translate(678.483645, 701.965472) rotate(-180.000000) translate(-678.483645, -701.965472) "></path>
        <path d="M539.544423,372.909637 C581.794206,372.909637 625,375.821837 625,364.5 C625,355.555358 720.437245,346.311939 690.626682,343.511997 C682.704002,342.767863 557.370998,344 548.5,344 C538.232753,344 528.727342,345.038653 520.219831,346.773629 C493.71888,352.17809 476.900808,364.339154 476.900808,372.909637 C476.900808,381.829635 492.96725,375.489938 519,372.909637 C526.009697,372.214854 530.581462,372.909637 539.544423,372.909637 Z" id="Oval-Copy-4" fill-opacity="0.78" fill="#D8D8D8"></path>
        <path d="M842.909955,685.112306 C885.159738,685.112306 928.365532,688.024506 928.365532,676.702669 C928.365532,667.758027 1023.80278,658.514608 993.992214,655.714665 C986.069534,654.970531 860.736529,656.202669 851.865532,656.202669 C845.020701,656.202669 840.239902,657.256476 837.523134,659.36409 L822.365532,685.112306 C830.086506,685.112306 836.934647,685.112306 842.909955,685.112306 Z" id="Oval-Copy-6" fill-opacity="0.78" fill="#D8D8D8" transform="translate(911.063035, 670.462069) rotate(-180.000000) translate(-911.063035, -670.462069) "></path>
    </g>
</svg>