<?xml version="1.0" encoding="UTF-8"?>
<svg width="1440px" height="1024px" viewBox="0 0 1440 1024" version="1.1" xmlns="http://www.w3.org/2000/svg" xmlns:xlink="http://www.w3.org/1999/xlink">
    <title>Neptune</title>
    <defs>
        <circle id="path-1" cx="720" cy="512" r="314"></circle>
        <filter x="-1.4%" y="-1.4%" width="102.9%" height="102.9%" filterUnits="objectBoundingBox" id="filter-2">
            <feGaussianBlur stdDeviation="1.5" in="SourceAlpha" result="shadowBlurInner1"></feGaussianBlur>
            <feOffset dx="15" dy="5" in="shadowBlurInner1" result="shadowOffsetInner1"></feOffset>
            <feComposite in="shadowOffsetInner1" in2="SourceAlpha" operator="arithmetic" k2="-1" k3="1" result="shadowInnerInner1"></feComposite>
            <feColorMatrix values="0 0 0 0 0   0 0 0 0 0   0 0 0 0 0  0 0 0 0.5 0" type="matrix" in="shadowInnerInner1" result="shadowMatrixInner1"></feColorMatrix>
            <feGaussianBlur stdDeviation="1.5" in="SourceAlpha" result="shadowBlurInner2"></feGaussianBlur>
            <feOffset dx="-15" dy="-10" in="shadowBlurInner2" result="shadowOffsetInner2"></feOffset>
            <feComposite in="shadowOffsetInner2" in2="SourceAlpha" operator="arithmetic" k2="-1" k3="1" result="shadowInnerInner2"></feComposite>
            <feColorMatrix values="0 0 0 0 0   0 0 0 0 0   0 0 0 0 0  0 0 0 0.5 0" type="matrix" in="shadowInnerInner2" result="shadowMatrixInner2"></feColorMatrix>
            <feMerge>
                <feMergeNode in="shadowMatrixInner1"></feMergeNode>
                <feMergeNode in="shadowMatrixInner2"></feMergeNode>
            </feMerge>
        </filter>
    </defs>
    <g id="Neptune" stroke="none" stroke-width="1" fill="none" fill-rule="evenodd">
        <g id="Oval-Copy-2">
            <use fill="#4575FF" fill-rule="evenodd" xlink:href="#path-1"></use>
            <use fill="black" fill-opacity="1" filter="url(#filter-2)" xlink:href="#path-1"></use>
        </g>
        <path d="M720,198 C763.017031,198 809.122669,206.750066 853.983731,227.924095 C870.473946,235.707332 887.088842,246.055635 902.902375,257 C914.799186,265.233646 930.630722,278.153004 949.197044,297.374841 C952.732641,301.035269 958.108142,307.243655 965.323547,316 L474.718392,316 C487.314195,300.901044 497.867325,289.529689 506.377781,281.885934 C524.353273,265.741058 550.170184,247.08402 563.452958,239.629962 C589.275061,225.139055 618.446884,213.402307 647.895991,206.357797 C672.829964,200.39335 698.133872,198 720,198 Z" id="Rectangle" fill-opacity="0.19" fill="#000000"></path>
        <path d="M535.984063,753.389376 C561.019268,738.107987 579.736494,727.766445 592.135741,722.364748 C608.054952,715.42959 621.839682,710.95586 633.85307,707.149921 C659.902044,698.897394 688.62949,694.874225 720.03541,695.080413 C742.060566,696.340183 758.522184,697.849763 769.420263,699.609153 C789.605771,702.867909 813.417241,709.269058 825.397517,713.036572 C847.07995,719.855187 873.376613,733.804068 904.287506,754.883218 C917.340399,764.054398 928.353874,773.124575 937.32793,782.093749 C946.301986,791.062922 958.906855,805.700852 975.142538,826.007539 L464.892872,826.007539 C468.546112,820.96398 472.00325,816.52535 475.264285,812.691647 C478.087246,809.372948 480.916678,804.765497 484.812826,800.785663 C495.460114,789.909682 512.517193,774.110919 535.984063,753.389376 Z" id="Rectangle-Copy-3" fill-opacity="0.19" fill="#000000" transform="translate(720.017705, 760.540207) rotate(-180.000000) translate(-720.017705, -760.540207) "></path>
        <path d="M474.663749,316 L965.328452,316 C977.943861,333.034971 986.880417,346.034971 992.138119,355 C997.395821,363.965029 1003.70743,376.965029 1011.07295,394 L428.930926,394 C432.890282,384.930808 435.816683,378.428998 437.710129,374.494572 C441.390498,366.847067 444.927416,360.264529 448.314763,354.48721 C454.316153,344.25149 463.099148,331.42242 474.663749,316 Z" id="Rectangle-Copy" fill-opacity="0.23" fill="#000000"></path>
        <path d="M456.435341,629.164849 L464.573518,617.072874 L974.973396,617.072874 C984.66794,631.047939 992.118348,643.00305 997.32462,652.938208 C1002.53089,662.873366 1008.70513,676.918255 1015.84735,695.072874 L424.015388,695.072874 C429.798501,679.970942 435.117553,667.556175 439.972545,657.828572 C444.827536,648.10097 450.315135,638.546395 456.435341,629.164849 Z" id="Rectangle-Copy-4" fill-opacity="0.23" fill="#000000" transform="translate(719.931368, 656.072874) rotate(-180.000000) translate(-719.931368, -656.072874) "></path>
        <path d="M428.930926,394 L1011.07295,394 C1025.50888,428.935483 1033.15123,465.351217 1034,503.247202 C1034.84877,541.143186 1028.7782,579.060786 1015.7883,617 L423.968405,617 C411.116234,578.352386 405.126765,540.434787 406,503.247202 C406.873235,466.059616 414.516877,429.643882 428.930926,394 Z" id="Rectangle-Copy-2" fill-opacity="0.26" fill="#000000"></path>
        <path d="M614.739327,560.768117 C634.911105,560.768117 692.136592,560.370981 692.136592,554.965472 C692.136592,550.694933 684.204987,556.302279 669.972203,554.965472 C666.189591,554.610192 623.250464,546.965472 619.015087,546.965472 C614.113082,546.965472 609.57481,547.461367 605.512975,548.289716 C592.860336,550.870027 584.830699,556.676217 584.830699,560.768117 C584.830699,565.026889 592.501477,562.000058 604.930578,560.768117 C608.277295,560.436399 610.460042,560.768117 614.739327,560.768117 Z" id="Oval-Copy-7" fill-opacity="0.78" fill="#D8D8D8" transform="translate(638.483645, 554.965472) rotate(-167.000000) translate(-638.483645, -554.965472) "></path>
        <ellipse id="Oval" fill-opacity="0.1" fill="#000000" cx="656.5" cy="532" rx="72.5" ry="20"></ellipse>
    </g>
</svg>