<?xml version="1.0" encoding="UTF-8"?>
<svg width="1440px" height="1024px" viewBox="0 0 1440 1024" version="1.1" xmlns="http://www.w3.org/2000/svg" xmlns:xlink="http://www.w3.org/1999/xlink">
    <title>Saturn</title>
    <defs>
        <circle id="path-1" cx="314" cy="314" r="314"></circle>
        <filter x="-3.3%" y="-3.3%" width="106.5%" height="106.5%" filterUnits="objectBoundingBox" id="filter-3">
            <feGaussianBlur stdDeviation="15.5" in="SourceAlpha" result="shadowBlurInner1"></feGaussianBlur>
            <feOffset dx="10" dy="2" in="shadowBlurInner1" result="shadowOffsetInner1"></feOffset>
            <feComposite in="shadowOffsetInner1" in2="SourceAlpha" operator="arithmetic" k2="-1" k3="1" result="shadowInnerInner1"></feComposite>
            <feColorMatrix values="0 0 0 0 0   0 0 0 0 0   0 0 0 0 0  0 0 0 0.5 0" type="matrix" in="shadowInnerInner1"></feColorMatrix>
        </filter>
    </defs>
    <g id="Saturn" stroke="none" stroke-width="1" fill="none" fill-rule="evenodd">
        <g id="Group" transform="translate(406.000000, 198.000000)">
            <mask id="mask-2" fill="white">
                <use xlink:href="#path-1"></use>
            </mask>
            <g id="Mask">
                <use fill="#D6C27D" fill-rule="evenodd" xlink:href="#path-1"></use>
                <use fill="black" fill-opacity="1" filter="url(#filter-3)" xlink:href="#path-1"></use>
            </g>
            <g mask="url(#mask-2)" fill="#000000">
                <g transform="translate(-43.544640, -75.286654)">
                    <rect id="Rectangle" fill-opacity="0.19" transform="translate(276.661296, 137.899289) rotate(-17.000000) translate(-276.661296, -137.899289) " x="6.16129633" y="76.3992886" width="541" height="123"></rect>
                    <rect id="Rectangle-Copy-3" fill-opacity="0.19" transform="translate(461.583763, 701.230299) rotate(-198.000000) translate(-461.583763, -701.230299) " x="191.083763" y="639.730299" width="541" height="123"></rect>
                    <rect id="Rectangle-Copy" fill-opacity="0.24" transform="translate(310.536179, 227.378439) rotate(-17.000000) translate(-310.536179, -227.378439) " x="3.53617927" y="193.378439" width="614" height="68"></rect>
                    <rect id="Rectangle-Copy-4" fill-opacity="0.24" transform="translate(426.152413, 612.355975) rotate(-198.000000) translate(-426.152413, -612.355975) " x="119.152413" y="578.355975" width="614" height="68"></rect>
                    <polygon id="Rectangle-Copy-2" fill-opacity="0.29" transform="translate(328.844524, 292.341475) rotate(-17.000000) translate(-328.844524, -292.341475) " points="31.979008 258.341475 645.979008 258.341475 645.979008 326.341475 11.7100393 311.328323"></polygon>
                    <polygon id="Rectangle-Copy-5" fill-opacity="0.29" transform="translate(406.713095, 547.722358) rotate(-198.000000) translate(-406.713095, -547.722358) " points="109.84758 513.722358 723.84758 513.722358 723.84758 581.722358 89.578611 566.709205"></polygon>
                </g>
            </g>
        </g>
        <g id="rings" transform="translate(54.559668, 243.357472)">
            <path d="M666.98594,228.72137 C818.030635,228.72137 950.787552,235.534319 1050.66171,245.00182 C1109.38129,250.568102 1156.68179,257.042265 1189.56444,263.594309 C1206.02057,266.873281 1218.75721,270.133618 1227.35132,273.332395 L1227.286,273.308 L1226.91651,273.437128 C1219.0784,276.138118 1207.92478,278.827757 1193.76262,281.50466 L1192.8918,281.668536 C1161.34197,287.579666 1115.62171,293.264403 1058.6267,298.126924 C957.84163,306.72539 821.977576,312.72137 666.859079,312.72137 C511.675161,312.72137 374.888774,306.66315 273.159278,297.998096 C215.618423,293.096915 169.348173,287.3715 137.397587,281.429075 C122.623328,278.681241 111.011143,275.921371 102.90317,273.15341 L102.637,273.061 L102.8694,272.97744 C111.360456,269.911022 123.720119,266.790855 139.554659,263.654224 L140.454662,263.476662 C173.647772,256.954191 221.397181,250.513732 280.54445,244.974695 C381.487812,235.521527 515.479896,228.72137 666.98594,228.72137 Z" id="Oval-Copy-3" stroke="#8C805F" stroke-width="20" transform="translate(664.853405, 270.721370) rotate(-16.000000) translate(-664.853405, -270.721370) "></path>
            <path d="M673.103425,219.88796 C834.677658,219.88796 976.689271,227.528047 1083.52581,238.144806 C1146.34616,244.387507 1196.95012,251.648814 1232.1292,258.997071 C1249.75342,262.678446 1263.39473,266.340734 1272.59893,269.932094 C1273.64192,270.339053 1274.61895,270.738237 1275.52671,271.132918 C1274.92453,271.379452 1274.29229,271.628164 1273.63102,271.880259 C1265.02209,275.162262 1252.23441,278.431355 1235.6853,281.681765 C1201.93213,288.31122 1153.01881,294.687161 1092.04351,300.140577 C984.233212,309.78275 838.898744,316.50665 672.967727,316.50665 C506.966776,316.50665 360.645726,309.712961 251.825209,299.99612 C190.266183,294.499369 140.764656,288.077844 106.582887,281.413317 C89.8283604,278.146634 76.8700435,274.862949 68.1441111,271.571199 C67.5018147,271.328901 66.8864544,271.089684 66.2994356,270.852367 C67.1682644,270.482626 68.0984243,270.108717 69.0874098,269.728003 C78.3617057,266.157821 92.1067631,262.52005 109.850241,258.865004 C145.361306,251.549944 196.445296,244.326483 259.722926,238.114364 C367.703094,227.513689 511.035839,219.88796 673.103425,219.88796 Z" id="Oval-Copy" stroke="#786E52" stroke-width="20" transform="translate(670.822341, 268.197305) rotate(-16.000000) translate(-670.822341, -268.197305) "></path>
            <path d="M615.277198,215.879718 C624.312717,215.880619 633.414862,215.884553 642.581146,215.888457 C653.045569,215.892912 663.593397,215.897404 674.219923,215.897404 L674.219923,215.897404 L678.02562,215.897793 C803.288254,215.923622 917.973568,217.240641 1014.20935,223.799724 C1107.34822,230.147733 1183.87838,239.339743 1238.66279,249.129248 C1268.48584,254.45837 1291.7723,259.936344 1307.65228,265.241469 C1313.49994,267.195035 1318.26192,269.077705 1321.85261,270.932878 L1322.174,271.101 L1321.77825,271.298778 C1320.37309,271.987848 1318.77528,272.684236 1316.99644,273.399501 L1316.45737,273.614659 C1306.40258,277.598839 1291.50914,281.686921 1272.26094,285.803364 C1234.18669,293.945966 1179.50887,302.03827 1111.58179,308.998196 C997.236801,320.714182 845.503342,329.191031 672.220915,329.191031 C499.708017,329.191031 348.618067,320.545576 234.524687,308.641927 C166.338681,301.52791 111.420863,293.260843 73.1289348,284.975187 C53.6941515,280.769864 38.6525813,276.600796 28.4934826,272.553282 C26.3747713,271.709161 24.497747,270.892245 22.8801248,270.085318 L22.556,269.921 L22.5903356,269.903457 C26.2596352,267.958565 31.1925389,265.976654 37.2941829,263.919184 L38.0034,263.681446 C54.3769014,258.224837 78.3203723,252.561846 108.876621,247.073569 C164.2381,237.129968 241.016788,227.847938 333.767269,221.715366 C414.477955,216.378854 507.24002,215.888748 608.51309,215.879659 Z" id="Oval-Copy-6" stroke="#5F5742" stroke-width="20" transform="translate(672.379506, 272.535376) rotate(-16.000000) translate(-672.379506, -272.535376) "></path>
            <ellipse id="Oval" stroke="#343024" stroke-width="20" transform="translate(670.940332, 269.142528) rotate(-16.000000) translate(-670.940332, -269.142528) " cx="670.940332" cy="269.142528" rx="663.032" ry="77"></ellipse>
            <path d="M351.440332,279.653854 C427.831084,251.749956 504.240064,225.280023 580.667273,200.244055 C657.094482,175.208086 771.829396,139.063243 924.872015,91.8095259 C934.584476,106.053729 941.544798,117.332642 945.752978,125.646265 C949.961159,133.959889 955.006257,146.398716 960.888274,162.962749 L360.402265,340.289793 C357.215321,323.882831 355.234242,312.671706 354.459027,306.656418 C353.683813,300.641131 352.677581,291.640276 351.440332,279.653854 Z" id="Rectangle" fill="#D6C27D"></path>
        </g>
    </g>
</svg>